<svg xmlns="http://www.w3.org/2000/svg" viewBox="0 0 128 128" role="img" aria-labelledby="title desc">
  <title>Codex Image</title>
  <desc>Stylized landscape frame with sparkles</desc>
  <defs>
    <linearGradient id="bg" x1="0%" y1="0%" x2="100%" y2="100%">
      <stop offset="0%" stop-color="#0f766e"/>
      <stop offset="100%" stop-color="#22c55e"/>
    </linearGradient>
  </defs>
  <rect x="8" y="8" width="112" height="112" rx="24" fill="url(#bg)"/>
  <rect x="26" y="32" width="76" height="64" rx="12" fill="#ecfeff" opacity="0.96"/>
  <circle cx="47" cy="49" r="7" fill="#14b8a6"/>
  <path d="M35 84l16-18 13 12 11-10 18 16H35z" fill="#0f766e"/>
  <path d="M84 25l2.5 6.5L93 34l-6.5 2.5L84 43l-2.5-6.5L75 34l6.5-2.5L84 25z" fill="#fef08a"/>
  <path d="M101 47l1.5 4 4 1.5-4 1.5-1.5 4-1.5-4-4-1.5 4-1.5 1.5-4z" fill="#fef08a"/>
</svg>
